<?xml version="1.0" encoding="utf-8"?>
<!-- Generator: Adobe Illustrator 27.5.0, SVG Export Plug-In . SVG Version: 6.00 Build 0)  -->
<svg version="1.1" xmlns="http://www.w3.org/2000/svg" xmlns:xlink="http://www.w3.org/1999/xlink" x="0px" y="0px"
	 viewBox="0 0 750 500" style="enable-background:new 0 0 750 500;" xml:space="preserve">
<g id="BACKGROUND">
	<g>
		<defs>
			<rect id="SVGID_1_" width="750" height="500"/>
		</defs>
		<clipPath id="SVGID_00000088103474226717909820000008122035301852274560_">
			<use xlink:href="#SVGID_1_"  style="overflow:visible;"/>
		</clipPath>
		
			<rect style="clip-path:url(#SVGID_00000088103474226717909820000008122035301852274560_);fill:#FFF0E3;" width="750" height="500"/>
		<path style="clip-path:url(#SVGID_00000088103474226717909820000008122035301852274560_);fill:#ECD3BD;" d="M217.266-36.673
			c0,0,24.67,114.132-95,81.494c-44-12-85,10-69,59c11.548,35.365,0,108.951-78,103.728V-18.673L217.266-36.673z"/>
		<path style="clip-path:url(#SVGID_00000088103474226717909820000008122035301852274560_);fill:#ECD3BD;" d="M522,513
			c0,0,17.926-72.982,91-52c101,29,111-46,90-82c-18.745-32.134-17-101.446,61-96.223V509L522,513z"/>
		<g style="clip-path:url(#SVGID_00000088103474226717909820000008122035301852274560_);">
			<circle style="opacity:0.16;fill:#EA9633;" cx="364.5" cy="85.5" r="52.5"/>
			<circle style="fill:#EA9633;" cx="364.5" cy="85.5" r="32.38"/>
		</g>
	</g>
</g>
<g id="OBJECTS">
	<g>
		
			<ellipse transform="matrix(0.9219 -0.3875 0.3875 0.9219 -34.7447 120.6949)" style="fill:#041701;" cx="281.959" cy="146.517" rx="20.308" ry="20.308"/>
		<circle style="fill:#041701;" cx="290.918" cy="156.671" r="12.543"/>
		
			<ellipse transform="matrix(0.2355 -0.9719 0.9719 0.2355 47.6683 414.555)" style="fill:#041701;" cx="287.334" cy="176.979" rx="19.711" ry="19.711"/>
		<path style="fill:#FEA56C;" d="M287.421,159.932c0.359-2.012,0.071-4.18,0.355-6.23c0.3-2.173,0.72-4.287,0.728-6.49
			c0.003-0.88,0.241-1.596,0.608-2.182c0.163-5.713-0.989-15.38-10.678-15.38c0,0-9.166,2.292-10.312,10.312
			c-1.146,8.02-4.583,10.312-4.583,11.457c0,1.146,2.292,3.438,2.292,3.438s-1.144,6.504-0.596,8.383
			c1.36,4.667,6.325,4.22,7.471,6.511c1.146,2.292-1.146,9.166-1.146,9.166s7.402,4.425,15.423,2.134l0.507-18.658
			C287.289,161.62,287.271,160.772,287.421,159.932z"/>
		<g>
			<g>
				<polygon style="fill:#EA9633;" points="288.637,258.417 299.697,313.799 344.767,300.827 324.253,245.989 				"/>
				<polygon style="fill:#BB3C00;" points="320.465,247.311 334.849,303.681 339.081,299.684 344.767,300.827 324.253,245.989 				
					"/>
			</g>
			<path style="fill:#BB3C00;" d="M316.004,255.224c0,0.989-0.802,1.792-1.792,1.792s-1.792-0.802-1.792-1.792
				c0-0.99,0.802-1.792,1.792-1.792S316.004,254.234,316.004,255.224z"/>
		</g>
		<path style="fill:none;stroke:#041701;stroke-width:0.5;stroke-miterlimit:10;" d="M314.462,254.759
			c0,0-6.26-22.159-17.571-25.219c0,0-4.778-1.195-3.584,11.946"/>
		<path style="fill:#FEA56C;" d="M299.387,193.215c0,0,11.241,16.615,13.049,21.952c2.235,6.597-10.413,45.91-10.413,45.91
			s-4.608,0.513-7.672-4.752c-0.601-1.032,4.331-35.744,4.331-35.744l-12.61-17.175
			C286.073,203.406,293.023,200.444,299.387,193.215z"/>
		<path style="fill:#F79661;" d="M283.153,306.591c0,0,13.141,40.616,13.141,66.897c0,26.281-4.778,34.643-7.168,38.227
			c-2.389,3.584-5.973,5.973-7.168,5.973c-1.195,0-3.584,0-1.195,2.389c2.389,2.389,13.14,1.194,14.335-1.195
			c1.195-2.389,5.973-13.14,9.557-14.335c3.584-1.194-1.195-15.53,2.389-32.254c3.584-16.724,7.167-33.448,2.389-47.784
			c-4.778-14.335-3.584-38.227-2.389-48.978c1.195-10.751-4.778-16.724-14.335-14.335c-9.557,2.389-13.141,19.113-13.141,29.865
			C279.569,301.813,283.153,306.591,283.153,306.591z"/>
		<path style="fill:#041701;" d="M295.925,365.229c0,0,5.741-3.481,12.612,0c0,0,3.114-12.1,3.201-25.215
			c0.086-13.115-3.024-17.903-3.024-17.903l-1.668-11.937l-23.892-7.168l-1.195,2.389c0,0,4.908,13.293,6.038,17.995
			C289.126,328.094,294.362,352.191,295.925,365.229z"/>
		<path style="fill:#041701;" d="M305.862,203.192c0,0-0.187,9.551-7.864,16.457l-1.094-1.228L305.862,203.192z"/>
		<path style="fill:#FEA56C;" d="M286.737,282.7c0,0-17.919,33.448-22.697,40.616c0,0,5.973,23.892,2.389,35.838
			c-3.584,11.946-3.584,32.254-2.389,37.032c1.195,4.778,0,7.168-4.778,10.751c-4.778,3.584-2.054,13.073-8.362,14.335
			c-5.973,1.195-11.946,1.195-10.751-1.194c1.195-2.389,4.778,0,8.362-9.557c3.584-9.557,4.778-27.475,1.195-41.81
			s-7.167-47.784-4.778-54.951c2.389-7.167,13.14-41.81,13.14-41.81S279.569,263.586,286.737,282.7z"/>
		<path style="fill:#041701;" d="M248.51,297.035c0,0-6.507,18.267-4.778,32.254c1.729,13.986,2.032,23.067,5.197,36.022
			c0,0,10.714-2.851,15.899,0.871c0,0,2.53-9.743,2.663-13.762c0.133-4.018,1.439-9.508,0.188-16.32
			c-0.704-3.835-1.39-7.403-1.855-9.79c-0.377-1.935-0.024-3.937,0.99-5.627l11.561-21.259
			C278.375,299.424,255.678,291.062,248.51,297.035z"/>
		<path style="fill:#BB3C00;" d="M291.515,228.943c0,0,11.946,14.335,16.724,37.032c4.778,22.697,3.584,43.005,3.584,43.005
			s-16.724,5.973-31.059-2.389c-14.335-8.362-34.643-2.389-34.643-2.389s5.973-38.227,11.946-52.562
			c5.973-14.335,4.778-33.448,4.778-33.448L291.515,228.943z"/>
		<path style="fill:#A32E00;" d="M292.62,182.348l13.231,20.315c0,0,0.791,8.678-9.821,16.736l-5.897-9.471
			C290.132,209.926,290.457,183.637,292.62,182.348z"/>
		<path style="fill:none;stroke:#041701;stroke-width:0.25;stroke-miterlimit:10;" d="M311.823,303.008
			c0,0-11.946,4.778-25.086-1.195c-13.141-5.973-19.406-7.367-25.83-6.67"/>
		<path style="fill:#BB3C00;" d="M295.099,226.554c0-8.362,4.778-27.475,2.389-35.838c-1.452-5.08-7.313-12.798-13.297-16.473
			c-2.824,1.429-5.946,1.929-9.221,2.215c-1.263,0.11-2.469,0.067-3.636-0.094c-6.942,7.592-15.417,19.611-13.268,23.908
			c2.389,4.778,4.778,37.032,4.778,37.032c5.973,11.946,39.421,10.751,39.421,10.751S295.099,234.916,295.099,226.554z"/>
		<polygon style="fill:#041701;" points="260.183,245.378 276.412,227.579 261.574,238.271 		"/>
		<path style="fill:#041701;" d="M249.705,406.937c0,0-2.389,7.167-8.362,9.557c-4.516,1.806-5.617,2.93-5.886,4.403
			c-0.15,0.823,0.523,1.57,1.359,1.57h14.544c0.459,0,0.887-0.229,1.142-0.611l7.613-11.419c0.46-0.69,1.537-0.365,1.537,0.465
			v10.829c0,0.406,0.329,0.735,0.735,0.735h1.023c0.363,0,0.672-0.265,0.727-0.624l2.293-14.906c0,0,3.584-7.168-2.389-10.751
			C264.04,396.185,260.456,405.742,249.705,406.937z"/>
		<path style="fill:#041701;" d="M291.515,406.937c0,0-2.389,7.167-8.362,9.557c-4.516,1.806-5.617,2.93-5.886,4.403
			c-0.15,0.823,0.523,1.57,1.359,1.57h14.544c0.459,0,0.887-0.229,1.142-0.611l7.613-11.419c0.46-0.69,1.537-0.365,1.537,0.465
			v10.829c0,0.406,0.329,0.735,0.735,0.735h1.023c0.363,0,0.672-0.265,0.727-0.624l2.293-14.906c0,0,3.584-7.168-2.389-10.751
			C305.85,396.185,301.072,403.353,291.515,406.937z"/>
		<path style="fill:#FEA56C;" d="M281.959,201.468c0,0-1.195,19.113-4.778,25.086c-3.584,5.973-34.643,25.086-34.643,25.086
			s-4.778-1.195-3.584-7.168c0.234-1.171,23.892-22.697,23.892-22.697l2.389-21.503
			C265.234,200.273,272.402,202.662,281.959,201.468z"/>
		<g>
			<polygon style="fill:#E0D2BD;" points="229.317,256.419 221.512,312.352 268.34,314.953 267.039,256.419 			"/>
			<polygon style="fill:#D6C3A9;" points="263.026,256.419 258.035,314.381 263.348,312.001 268.34,314.953 267.039,256.419 			"/>
		</g>
		<path style="fill:#041701;" d="M255.08,261.197c0,0.66-0.535,1.195-1.195,1.195c-0.66,0-1.195-0.535-1.195-1.195
			c0-0.66,0.535-1.195,1.195-1.195C254.545,260.002,255.08,260.537,255.08,261.197z"/>
		<circle style="fill:#041701;" cx="238.356" cy="261.197" r="1.195"/>
		<path style="fill:none;stroke:#041701;stroke-width:0.5;stroke-miterlimit:10;" d="M253.886,261.794c0,0,4.058-27.237-3.645-28.85
			"/>
		
			<line style="fill:none;stroke:#041701;stroke-width:0.5;stroke-miterlimit:10;" x1="238.464" y1="261.413" x2="238.274" y2="254.532"/>
		<path style="fill:#FEA56C;" d="M239.183,243.88c0,0-4.759,3.785-6.078,5.133c-1.319,1.348-1.156,2.17-1.672,3.775
			c-0.516,1.606,1.548,1.242,1.548,1.242l0.182,0.316c0,0,0.029,2.667,1.377,3.985c1.348,1.319,5.362,2.609,6.423,2.064
			c1.061-0.545,2.895-3.498,2.351-4.559c-0.545-1.061-1.348-1.319-1.09-2.122c0.258-0.803,1.319-1.348,2.093-3.756l4.214-4.846
			l-2.409-7.807L239.183,243.88z"/>
		<path style="fill:#041701;" d="M268.818,140.544c0,0,0,4.778,3.584,5.973c3.584,1.195,5.973,1.195,5.973,3.584
			s1.195,2.389,1.195,2.389s3.584,0,2.389,3.584c-1.195,3.584-4.778,1.195-4.778,1.195s-1.195,2.389,1.195,7.168
			c2.389,4.778-3.584,9.557,5.973,14.335c9.557,4.778,15.53,1.195,17.919-5.973c2.389-7.167-7.168-9.557-7.168-17.919
			c0-8.362,0-20.308-7.168-23.892C280.764,127.403,267.624,129.792,268.818,140.544z"/>
		<circle style="fill:#FFFFFF;" cx="280.167" cy="159.06" r="1.792"/>
		<path style="fill:none;stroke:#041701;stroke-width:0.25;stroke-miterlimit:10;" d="M275.986,176.381
			c0,0-5.973,8.362-5.973,11.946s0,12.991,0,12.991"/>
		<polygon style="fill:#041701;" points="265.234,256.419 262.845,312.564 258.067,314.953 262.845,256.419 		"/>
		<g>
			<g>
				
					<text transform="matrix(0.9963 0.086 -0.086 0.9963 226.8594 281.5253)" style="fill:#BB3C00; font-family:'Montserrat-Black'; font-size:22.035px;">SA</text>
				
					<text transform="matrix(0.9963 0.086 -0.086 0.9963 223.8192 302.913)" style="fill:#BB3C00; font-family:'Montserrat-Black'; font-size:26.4098px;">LE</text>
			</g>
		</g>
		<path style="fill:#FFFFFF;" d="M241.343,243.278c0,0.66-0.535,1.195-1.195,1.195c-0.66,0-1.195-0.535-1.195-1.195
			c0-0.66,0.535-1.195,1.195-1.195C240.808,242.084,241.343,242.618,241.343,243.278z"/>
		<path style="fill:#FFFFFF;" d="M242.537,244.473c0,0.66-0.535,1.195-1.195,1.195c-0.66,0-1.195-0.535-1.195-1.195
			c0-0.66,0.535-1.195,1.195-1.195C242.002,243.278,242.537,243.813,242.537,244.473z"/>
		<path style="fill:#FFFFFF;" d="M243.732,245.667c0,0.66-0.535,1.194-1.195,1.194c-0.66,0-1.195-0.535-1.195-1.194
			c0-0.66,0.535-1.195,1.195-1.195C243.197,244.473,243.732,245.008,243.732,245.667z"/>
		<path style="fill:#FFFFFF;" d="M244.926,246.862c0,0.66-0.535,1.195-1.195,1.195c-0.66,0-1.195-0.535-1.195-1.195
			c0-0.66,0.535-1.194,1.195-1.194C244.392,245.667,244.926,246.202,244.926,246.862z"/>
		<path style="fill:#FFFFFF;" d="M246.121,248.057c0,0.66-0.535,1.195-1.195,1.195c-0.66,0-1.195-0.535-1.195-1.195
			c0-0.66,0.535-1.195,1.195-1.195C245.586,246.862,246.121,247.397,246.121,248.057z"/>
		<path style="fill:#FFFFFF;" d="M247.315,249.251c0,0.66-0.535,1.195-1.195,1.195c-0.66,0-1.195-0.535-1.195-1.195
			c0-0.66,0.535-1.195,1.195-1.195C246.781,248.057,247.315,248.591,247.315,249.251z"/>
	</g>
	<g>
		<path style="fill:#FEA56C;" d="M206.268,134.11c0,0,2.61-7.874,3.719-8.179c1.109-0.305,1.109-0.305,1.718,1.914
			c0.609,2.219,0.109,4.742-0.696,6.156c-0.805,1.414-1.914,1.718-1.914,1.718S202.245,141.18,206.268,134.11z"/>
		<path style="fill:#FEA56C;" d="M68.41,152.091c0,0-4.601-6.902-5.752-6.902c-1.15,0-1.15,0-1.15,2.301
			c0,2.301,1.15,4.601,2.301,5.752c1.15,1.15,2.301,1.15,2.301,1.15S74.162,157.842,68.41,152.091z"/>
		
			<ellipse transform="matrix(0.0466 -0.9989 0.9989 0.0466 -7.2424 296.1461)" style="fill:#041701;" cx="151.526" cy="151.867" rx="23.931" ry="23.931"/>
		<path style="fill:#041701;" d="M151.686,171.409c1.567,12.8-7.54,24.447-20.34,26.014c-12.8,1.567-24.447-7.54-26.014-20.34
			c-1.567-12.8,7.54-24.447,20.34-26.014C138.473,149.502,150.119,158.609,151.686,171.409z"/>
		<path style="fill:#FEA56C;" d="M155.47,411.482c-3.096-1.032-3.263-4.351-3.263-4.351l-12.198-3.372l0.517,4.3
			c0,0-0.285,3.423-1.372,5.599c-0.471,0.941,0.689,1.066,2.154,0.908l0.022,0.18c0,0,6.527,4.351,10.878,3.263
			c4.351-1.088,9.79-4.351,9.79-4.351S158.734,412.569,155.47,411.482z"/>
		<path style="fill:#FEA56C;" d="M178.959,403.707c-1.674-2.801,2.618-11.806,2.618-11.806l-9.79-6.527l-0.906,2.821
			c-0.856,2.665-2.656,4.98-5.147,6.257c-0.188,0.097-0.377,0.185-0.563,0.263c-0.97,0.406-0.174,1.258,1.041,2.093l-0.101,0.151
			c0,0,0.581,9.246,4.589,11.259c4.008,2.013,13.053,6.527,13.053,6.527S180.724,406.66,178.959,403.707z"/>
		<path style="fill:#041701;" d="M130.451,249.402c0,0-18.998,15.874-15.735,45.244l18.998,49.393c0,0-4.351,10.878,1.088,32.634
			c5.439,21.756,5.439,30.458,5.439,30.458s6.527,3.264,14.141,0l-1.088-58.74l3.263-66.355
			C156.558,282.035,150.031,246.138,130.451,249.402z"/>
		<path style="fill:#041701;" d="M164.173,258.104c0,0,38.072,76.145,39.16,80.496c1.088,4.351-22.843,57.653-22.843,57.653
			s-4.351,2.176-10.878-6.527l3.807-17.949c0,0,0-19.58,8.702-33.721l-41.124-38.632l-6.284-50.115L164.173,258.104z"/>
		<path style="fill:#041701;" d="M189.095,416.099c-2.271-0.467-3.921-1.062-5.212-1.614c-0.514-0.693-1.568-1.564-3.58-2.802
			c-1.624-0.999-7.983-2.999-11.124-9.19c-3.14-6.19-1.742-7.487-3.738-8.237c0,0-3.574,0.374-5.073,3.542
			c-0.46,0.972-0.372,2.113,0.191,3.03c0.68,1.109,1.982,2.919,4.426,5.555c4.539,4.894,3.941,2.847,7.78,8.389
			c0,0,0.603,0.65,1.522,1.641c2.222,2.396,5.257,3.85,8.489,4.118c0.124,0.038,0.248,0.079,0.373,0.115
			c2.865,0.108,5.95,0.224,7.672,0.289C194.633,421.078,194.776,417.267,189.095,416.099z"/>
		<path style="fill:#041701;" d="M138.975,412.69c0,0-1.864,2.485-1.078,5.449c0.375,1.415,1.604,2.44,3.047,2.687
			c1.324,0.227,3.425,0.445,6.613,0.445c6.674,0,4.767-0.953,11.442,0c0,0,10.488,0,14.302,0c3.814,0,3.814-3.814-1.907-4.767
			c-5.721-0.953-7.628-2.861-9.535-2.861c-1.907,0-7.628,3.814-14.302,1.907C140.881,413.644,140.881,411.737,138.975,412.69z"/>
		<path style="fill:#1A4244;" d="M141.329,176.52c0,0-13.053,10.878-14.141,21.756c-1.088,10.878,1.227,46.34-3.263,53.301
			c-11.598,17.982-12.792,32.317-13.987,37.095c-2.374,9.498,23.777,15.118,34.655,10.767c10.878-4.351,23.931,5.439,32.634,6.527
			c5.107,0.638,7.966-0.222,9.457-1.042c0.875-0.481,1.263-1.526,0.889-2.452l-22.311-55.247c0,0-3.263-20.668,4.351-27.195
			c7.614-6.527,1.088-19.58,1.088-26.107C170.699,187.398,154.382,172.169,141.329,176.52z"/>
		<path style="fill:#FEA56C;" d="M166.811,180.82c0,0,21.19-17.93,24.45-22.82s16.3-26.08,16.3-26.08l4.643,1.765l0.247,4.755
			c0,0-11.41,27.71-13.04,30.97c-1.63,3.26-24.45,29.34-24.45,29.34L166.811,180.82z"/>
		<path style="fill:#FEA56C;" d="M121.9,181.174c0,0-26.25-7.41-31.075-10.766c-4.825-3.356-24.756-19.806-24.756-19.806
			l-2.162,7.858c0,0,20.768,21.604,23.479,24.04c2.711,2.436,33.498,18.343,33.498,18.343L121.9,181.174z"/>
		<path style="fill:#1A4244;" d="M141.329,176.52c0,0-21.46,3.82-30.31,0.822c-8.85-2.998-18.64-7.349-19.728-8.437
			c-1.088-1.088-8.288-5.676-8.288-5.676s-4.657,1.423-5.799,8.988c0,0,8.648,10.829,10.823,13.004
			c2.176,2.176,34.809,20.668,34.809,20.668s3.717,3.668,3.717,11.08c0,7.412,15.863-14.344,15.863-14.344L141.329,176.52z"/>
		<path style="fill:#1A4244;" d="M198.71,145.587c0,0-5.041,6.891-5.659,8.299c-0.618,1.409-8.158,9.021-15.313,15.029
			c-7.155,6.009-28.537,10.249-28.537,10.249l8.169,23.826c0.132-0.001,0.263,0.002,0.391,0.013c2.83-0.389,0.165,2.585,3.148,2.886
			c3.559-1.62,1.774,9.213,5.439,8.702c0.014-0.002,11.05-15.164,11.064-15.166c2.756-3.391,23.455-28.895,24.609-31.525
			c1.236-2.817,5.357-16.049,5.357-16.049C203.565,145.22,198.71,145.587,198.71,145.587z"/>
		<path style="fill:#FEA56C;" d="M139.624,180.545l-1.912-20.669c0,0-2.824,2.722-3.793-2.63c-0.969-5.352,0.784-7.88,2.925-8.268
			c2.141-0.388,3.599,1.559,3.986,3.7c0.388,2.141,0.172,2.731,1.242,2.538c1.07-0.194,0.246-7.225,3.946-11.212
			c3.7-3.986,8.025-4.894,12.205-0.124c4.18,4.77,5.405-2.077,7.057,0.941c1.652,3.017,4.07,18.71-2.606,26.504
			c-3.521,4.111-8.813,2.41-8.813,2.41l1.744,9.633C155.606,183.368,146.72,189.21,139.624,180.545z"/>
		<path style="fill:#FFFFFF;" d="M152.207,162.379c0,0,5.439,1.088,8.702,1.088c3.263,0,2.176,6.527-3.263,6.527
			c-5.439,0-6.527-5.439-6.527-6.527S152.207,162.379,152.207,162.379z"/>
		<g>
			<g>
				<polygon style="fill:#BB3C00;" points="39.978,170.134 29.09,230.066 79.439,234.944 80.631,171.805 				"/>
				<polygon style="fill:#A32E00;" points="76.306,171.628 68.359,233.871 74.19,231.541 79.439,234.944 80.631,171.805 				"/>
			</g>
			<path style="fill:#A32E00;" d="M67.531,176.425c-0.029,0.711-0.629,1.264-1.34,1.234c-0.711-0.029-1.264-0.629-1.234-1.34
				c0.029-0.711,0.629-1.264,1.34-1.234C67.007,175.114,67.56,175.714,67.531,176.425z"/>
			<path style="fill:#A32E00;" d="M50.795,175.737c-0.029,0.711-0.629,1.264-1.34,1.234c-0.711-0.029-1.264-0.629-1.234-1.34
				c0.029-0.711,0.629-1.264,1.34-1.234C50.272,174.426,50.824,175.026,50.795,175.737z"/>
		</g>
		<g>
			<g>
				<polygon style="fill:#EA9633;" points="235.798,146.978 246.687,206.91 196.337,211.788 195.145,148.649 				"/>
				<polygon style="fill:#F15A24;" points="199.47,148.471 207.417,210.714 201.586,208.385 196.337,211.788 195.145,148.649 				
					"/>
			</g>
			<path style="fill:#F15A24;" d="M208.245,153.269c0.029,0.711,0.629,1.264,1.34,1.234c0.711-0.029,1.264-0.629,1.235-1.34
				c-0.029-0.711-0.629-1.264-1.34-1.234C208.769,151.958,208.216,152.558,208.245,153.269z"/>
			<path style="fill:#F15A24;" d="M224.981,152.581c0.029,0.711,0.629,1.264,1.34,1.234c0.711-0.029,1.264-0.629,1.235-1.34
				s-0.629-1.264-1.34-1.234S224.952,151.87,224.981,152.581z"/>
		</g>
		<path style="fill:none;stroke:#041701;stroke-width:0.5;stroke-linecap:round;stroke-linejoin:round;stroke-miterlimit:10;" d="
			M50.005,176.248c0,0-1.15-21.857,5.752-25.308c6.902-3.451,12.654,0,13.804,6.902c1.15,6.902-2.301,18.406-2.301,18.406"/>
		<path style="fill:none;stroke:#041701;stroke-width:0.5;stroke-linecap:round;stroke-linejoin:round;stroke-miterlimit:10;" d="
			M209.328,152.666c-0.743-5.918-2.382-19.718,2.661-23.023c6.454-4.231,12.568-1.472,14.513,5.249
			c1.945,6.721-0.144,18.548-0.144,18.548"/>
		<path style="fill:#FEA56C;" d="M65.393,160.003c0,0-10.786-4.462-10.786-6.762c0-2.301,0-6.902,5.752-6.902
			c3.638,0,3.451,5.752,3.451,5.752l2.301,3.451l-0.501,4.685"/>
		<path style="fill:#FEA56C;" d="M212.424,138.641c0,0,9.22-7.158,8.611-9.377c-0.609-2.219-1.827-6.656-7.374-5.133
			c-3.508,0.963-1.805,6.46-1.805,6.46l-1.305,3.937l1.724,4.385"/>
		<path style="fill:#041701;" d="M143.386,168.019c0,0,7.167,4.778,11.946,5.973l-0.075,7.451L143.386,168.019z"/>
		<polygon style="fill:#041701;" points="91.142,168.768 90.825,173.992 93.987,170.459 		"/>
		<polygon style="fill:#041701;" points="178.795,168.019 184.002,168.019 181.848,165.335 		"/>
		<g>
			<g>
				
					<text transform="matrix(0.9953 0.0971 -0.0971 0.9953 39.8946 201.2568)" style="fill:#EA9633; font-family:'Montserrat-Black'; font-size:11.7506px;">25%</text>
				
					<text transform="matrix(0.9953 0.0971 -0.0971 0.9953 38.8485 211.9773)" style="fill:#EA9633; font-family:'Montserrat-Black'; font-size:11.7506px;">OFF</text>
			</g>
		</g>
		<g>
			<g>
				
					<text transform="matrix(0.9954 -0.0959 0.0959 0.9954 205.9514 176.646)" style="fill:#BB3C00; font-family:'Montserrat-Black'; font-size:22.0349px;">SA</text>
				
					<text transform="matrix(0.9954 -0.0959 0.0959 0.9954 206.8342 198.231)" style="fill:#BB3C00; font-family:'Montserrat-Black'; font-size:26.4096px;">LE</text>
			</g>
		</g>
		<path style="fill:#FFFFFF;" d="M138.608,177.576c0,0,9.112,1.685,12.918,7.413c0,0-0.972,2.144-6.945,0.95
			c-5.973-1.195-7.32-5.388-7.32-5.388L138.608,177.576z"/>
		<path style="fill:#FFFFFF;" d="M151.748,184.743c0,0,1.195-4.778,3.584-5.973c2.389-1.195,1.195,4.778,1.195,4.778
			s-1.885,2.048-5.123,1.621L151.748,184.743z"/>
		<path style="fill:none;stroke:#041701;stroke-width:0.5;stroke-miterlimit:10;" d="M156.527,153.087
			c0,3.629-2.407,6.57-5.376,6.57s-5.376-2.942-5.376-6.57c0-3.629,2.407-6.57,5.376-6.57S156.527,149.458,156.527,153.087z"/>
		<path style="fill:none;stroke:#041701;stroke-width:0.5;stroke-miterlimit:10;" d="M169.667,154.281
			c0,3.629-2.407,6.57-5.376,6.57c-2.969,0-5.376-2.942-5.376-6.57c0-3.629,2.407-6.57,5.376-6.57
			C167.26,147.711,169.667,150.653,169.667,154.281z"/>
		<path style="fill:none;stroke:#041701;stroke-width:0.5;stroke-miterlimit:10;" d="M155.499,149.222c0,0,2.651-2.016,4.826,0.626"
			/>
		
			<line style="fill:none;stroke:#041701;stroke-width:0.5;stroke-miterlimit:10;" x1="138.608" y1="149.167" x2="146.337" y2="150.161"/>
		<path style="fill:none;stroke:#041701;stroke-width:0.25;stroke-miterlimit:10;" d="M61.519,146.796c0,0-2.948-0.28-4.143,2.11
			c-1.194,2.389-1.194,3.584-1.194,3.584"/>
		<path style="fill:none;stroke:#041701;stroke-width:0.25;stroke-miterlimit:10;" d="M62.714,147.991c0,0-2.948-0.28-4.143,2.11
			c-1.195,2.389-1.195,3.584-1.195,3.584"/>
		<path style="fill:none;stroke:#041701;stroke-width:0.25;stroke-miterlimit:10;" d="M63.349,149.78c0,0-2.022-0.192-2.841,1.447
			c-0.819,1.639-0.819,2.458-0.819,2.458"/>
		<path style="fill:none;stroke:#041701;stroke-width:0.25;stroke-miterlimit:10;" d="M212.811,125.473c0,0,2.585-1.445,4.642,0.259
			c2.057,1.704,2.539,2.797,2.539,2.797"/>
		<path style="fill:none;stroke:#041701;stroke-width:0.25;stroke-miterlimit:10;" d="M212.2,127.048c0,0,2.585-1.445,4.642,0.259
			c2.057,1.704,2.539,2.798,2.539,2.798"/>
		<path style="fill:none;stroke:#041701;stroke-width:0.25;stroke-miterlimit:10;" d="M212.34,128.942c0,0,1.773-0.991,3.183,0.178
			c1.411,1.169,1.741,1.918,1.741,1.918"/>
		<circle style="fill:#FFFFFF;" cx="152.346" cy="188.924" r="1.792"/>
		<path style="fill:#FFFFFF;" d="M155.332,196.092c0,0.99-0.802,1.792-1.792,1.792c-0.99,0-1.792-0.802-1.792-1.792
			c0-0.99,0.802-1.792,1.792-1.792C154.53,194.3,155.332,195.102,155.332,196.092z"/>
		<path style="fill:#FFFFFF;" d="M155.332,204.454c0,0.99-0.802,1.792-1.792,1.792c-0.99,0-1.792-0.802-1.792-1.792
			c0-0.99,0.802-1.792,1.792-1.792C154.53,202.662,155.332,203.464,155.332,204.454z"/>
		<polygon style="fill:#163A3A;" points="138.074,268.339 134.714,301.914 143.193,299.959 		"/>
		<path style="fill:#041701;" d="M171.045,218.51c0,0-3.766,4.46-20.491,4.46l14.067,11.974L171.045,218.51z"/>
		<polygon style="fill:#163A3A;" points="161.305,268.365 163.546,301.338 175.718,305.703 		"/>
		<path style="fill:none;stroke:#041701;stroke-width:0.5;stroke-miterlimit:10;" d="M110.535,285.686c0,0,7.209,7.53,15.53,8.362
			c11.946,1.195,18.516-6.57,31.657-1.792c13.14,4.778,20.375,8.839,27.509,4.419"/>
		<polyline style="fill:none;stroke:#000000;stroke-width:0.5;stroke-miterlimit:10;" points="173.251,311.37 189.975,335.261 
			174.446,391.407 		"/>
		<path style="fill:none;stroke:#000000;stroke-width:0.5;stroke-miterlimit:10;" d="M137.703,301.439l5.086,36.809
			c0,0-3.584,39.421,3.584,65.702"/>
	</g>
	<g>
		<path style="fill:#041701;" d="M500.513,173.884c0,3.612-2.928,6.54-6.54,6.54c-3.612,0-6.54-2.928-6.54-6.54
			c0-3.612,2.928-6.54,6.54-6.54C497.585,167.344,500.513,170.272,500.513,173.884z"/>
		<path style="fill:#041701;" d="M510.575,166.841c0,3.612-2.928,6.54-6.54,6.54s-6.54-2.928-6.54-6.54
			c0-3.612,2.928-6.54,6.54-6.54S510.575,163.229,510.575,166.841z"/>
		
			<ellipse transform="matrix(0.7071 -0.7071 0.7071 0.7071 38.6591 404.8769)" style="fill:#041701;" cx="508.059" cy="155.773" rx="9.559" ry="9.559"/>
		<path style="fill:#041701;" d="M515.606,141.686c0,5.279-4.28,9.559-9.559,9.559c-5.279,0-9.559-4.28-9.559-9.559
			c0-5.279,4.28-9.559,9.559-9.559C511.326,132.127,515.606,136.407,515.606,141.686z"/>
		<circle style="fill:#041701;" cx="497.997" cy="131.624" r="9.559"/>
		
			<ellipse transform="matrix(0.7071 -0.7071 0.7071 0.7071 49.7901 379.4273)" style="fill:#041701;" cx="482.904" cy="129.612" rx="9.559" ry="9.559"/>
		
			<ellipse transform="matrix(0.7071 -0.7071 0.7071 0.7071 44.4138 372.4851)" style="fill:#041701;" cx="471.836" cy="132.63" rx="9.559" ry="9.559"/>
		<circle style="fill:#041701;" cx="465.799" cy="142.692" r="9.559"/>
		<circle style="fill:#041701;" cx="464.793" cy="156.779" r="9.559"/>
		<path style="fill:#041701;" d="M480.389,167.847c0,5.279-4.28,9.559-9.559,9.559c-5.279,0-9.559-4.279-9.559-9.559
			s4.28-9.559,9.559-9.559C476.109,158.288,480.389,162.568,480.389,167.847z"/>
		
			<ellipse transform="matrix(0.7071 -0.7071 0.7071 0.7071 34.7268 387.3339)" style="fill:#041701;" cx="484.917" cy="151.748" rx="26.664" ry="26.664"/>
		<path style="fill:#5E3721;" d="M491.849,184.087l1.769-19.124c0,0,2.612,2.519,3.509-2.433c0.897-4.952-0.725-7.291-2.706-7.65
			c-1.981-0.359-3.33,1.443-3.688,3.423s-0.159,2.527-1.15,2.348c-0.99-0.179-0.228-6.685-3.651-10.374
			c-3.424-3.688-7.425-4.528-11.292-0.115s-5.001-1.922-6.529,0.87c-1.528,2.792-3.766,17.311,2.411,24.522
			c3.258,3.804,8.155,2.23,8.155,2.23l-1.614,8.913C477.062,186.7,485.284,192.104,491.849,184.087z"/>
		<path style="fill:#244F4F;" d="M419.403,221.408c-8.442-1.742-9.448,17.376,0.6,17.9c15.775,0.822,32.829,5.153,36.18,5.036
			c4.497-0.157,23.815-32.96,24.037-43.019c0.223-10.059-16.511-12.176-23.203,2.467c-6.692,14.642-9.202,20.133-9.202,20.133
			l-27.878-2.586C419.936,221.338,419.737,221.477,419.403,221.408z"/>
		<polygon style="fill:#FFFFFF;" points="560.884,366.57 574.971,387.701 565.915,392.732 556.86,387.701 542.773,369.589 		"/>
		<polygon style="fill:#041701;" points="455.775,228.873 449.98,239.694 438.631,241.476 452.199,243.869 458.342,244.473 		"/>
		<polygon style="fill:#FFFFFF;" points="499.33,384.106 501.954,409.365 491.597,409.599 485.927,400.93 481.897,378.342 		"/>
		<path style="fill:#041701;" d="M483.408,396.756l-3.019,15.093c0,0-17.105,5.031-18.112,7.043c-1.006,2.013-1.006,4.025,0,4.025
			c1.006,0,20.124,0,20.124,0s5.031-2.012,7.043-4.025c2.012-2.012,4.025-5.031,5.031-5.031c1.006,0,2.012,3.019,3.019,3.019
			s10.062-5.031,10.062-6.037c0-1.006-2.012-5.031-2.012-5.031s-2.013-7.043-5.031-10.062c0,0-1.006,5.031-9.056,6.037
			C483.408,402.793,488.438,395.75,483.408,396.756z"/>
		<path style="fill:#041701;" d="M553.841,385.688c0,0,4.025,7.043,5.031,11.068c1.006,4.025-1.006,23.143,0,26.161
			c1.006,3.019,5.031,3.019,6.037,1.006c1.006-2.012,8.05-17.105,8.05-19.118c0-2.012,0-9.056,0-9.056h3.018
			c0,0,3.019-7.043,3.019-8.05c0-1.006-2.012-3.018-2.012-3.018s-3.019-5.031-7.043-7.043c-4.025-2.012-1.006,5.031-5.031,7.043
			C560.884,386.694,553.841,381.663,553.841,385.688z"/>
		<path style="fill:#8C91A5;" d="M509.568,250.858c0,0,4.025,12.074,5.031,27.167l18.112,40.248l34.211,52.322
			c0,0,0,9.056-18.112,10.062c0,0-33.204-42.26-39.242-52.322c-6.037-10.062-19.118-32.198-19.118-32.198l-2.013,32.198
			c0,0,9.056,42.26,13.081,66.409c0,0-7.043,5.031-20.124,3.019c0,0-17.105-61.378-18.111-72.446
			c-1.006-11.068-2.012-68.421-2.012-68.421L509.568,250.858z"/>
		<path style="fill:#041701;" d="M463.231,291.312c0,0,30.685,6.982,56.036-2.64l-3.584-8.362L463.231,291.312z"/>
		<path style="fill:#1A4244;" d="M493.251,187.221c-6.473-2.383-13.641-2.396-20.031,0.2c-1.509,0.613-2.893,1.305-3.899,2.059
			c-4.025,3.019-8.876,9.258-10.978,16.766c-1.119,3.995-4.059,21.784-2.389,34.643c1.353,10.417,2.299,28.081,3.305,37.136
			c1.006,9.056-3.019,11.068,3.018,13.081c5.308,1.769,39.396-3.462,55.075-8.855c2.9-0.997,4.386-4.22,3.271-7.076
			c-3.039-7.785-8.204-23.202-6.024-33.373c3.019-14.087,2.012-39.242-4.025-45.279
			C507.085,193.034,499.562,189.545,493.251,187.221z"/>
		<g>
			<g>
				<g>
					<polygon style="fill:#EA9633;" points="328.495,317.623 324.533,375.428 372.644,374.721 367.101,314.909 					"/>
					<polygon style="fill:#F15A24;" points="362.994,315.198 362.056,374.876 367.322,372.058 372.644,374.721 367.101,314.909 
											"/>
				</g>
				<path style="fill:none;stroke:#041701;stroke-width:0.5;stroke-miterlimit:10;" d="M354.026,321.357
					c0,0,2.193-28.167-5.807-29.263c0,0-12.505-2.817-10.694,22.954l0.69,7.028"/>
			</g>
			<g>
				<g>
					<polygon style="fill:#E0D2BD;" points="319.716,327.229 315.61,374.62 355.113,374.75 351.446,325.571 					"/>
					<polygon style="fill:#D6C3A9;" points="348.071,325.747 346.42,374.721 350.784,372.486 355.113,374.75 351.446,325.571 					
						"/>
				</g>
				<path style="fill:none;stroke:#041701;stroke-width:0.5;stroke-miterlimit:10;" d="M340.618,330.671
					c0,0,2.216-23.089-4.334-24.106c0,0-10.224-2.497-9.117,18.684l0.462,5.779"/>
			</g>
			<g>
				<rect x="355.621" y="340.409" style="fill:#ED1C24;" width="43.266" height="34.211"/>
				<rect x="354.615" y="338.397" style="fill:#C1272D;" width="45.279" height="7.043"/>
			</g>
			<g>
				<rect x="378.484" y="313.689" style="fill:#1A4244;" width="31.248" height="24.708"/>
				<rect x="377.757" y="312.236" style="fill:#244F4F;" width="32.701" height="5.087"/>
			</g>
			<g>
				<g>
					<g>
						<polyline style="fill:none;stroke:#041701;stroke-linecap:round;stroke-linejoin:round;stroke-miterlimit:10;" points="
							432.595,264.442 401.742,375.291 308.501,375.291 298.268,302.518 421.526,302.518 						"/>
						
							<line style="fill:none;stroke:#041701;stroke-width:0.5;stroke-linecap:round;stroke-linejoin:round;stroke-miterlimit:10;" x1="301.789" y1="324.691" x2="415.946" y2="324.691"/>
						
							<line style="fill:none;stroke:#041701;stroke-width:0.5;stroke-linecap:round;stroke-linejoin:round;stroke-miterlimit:10;" x1="408.275" y1="352.018" x2="305.229" y2="352.018"/>
						
							<line style="fill:none;stroke:#041701;stroke-width:0.5;stroke-linecap:round;stroke-linejoin:round;stroke-miterlimit:10;" x1="397.097" y1="302.518" x2="386.839" y2="375.291"/>
						
							<line style="fill:none;stroke:#041701;stroke-width:0.5;stroke-linecap:round;stroke-linejoin:round;stroke-miterlimit:10;" x1="323.852" y1="303.086" x2="323.852" y2="375.859"/>
						
							<line style="fill:none;stroke:#041701;stroke-width:0.5;stroke-linecap:round;stroke-linejoin:round;stroke-miterlimit:10;" x1="360.444" y1="302.518" x2="360.444" y2="375.291"/>
					</g>
					
						<polyline style="fill:none;stroke:#041701;stroke-width:0.5;stroke-linecap:round;stroke-linejoin:round;stroke-miterlimit:10;" points="
						401.174,375.859 397.762,391.779 330.674,391.779 					"/>
				</g>
				<g>
					<circle style="fill:#041701;" cx="381.275" cy="407.129" r="14.782"/>
					<circle style="fill:#9E9E9E;" cx="381.275" cy="407.129" r="7.96"/>
				</g>
				<g>
					<circle style="fill:#041701;" cx="328.969" cy="407.129" r="14.782"/>
					<circle style="fill:#9E9E9E;" cx="328.969" cy="407.129" r="7.96"/>
					<path style="fill:#041701;" d="M326.387,407.129c0,1.426,1.156,2.582,2.582,2.582c1.426,0,2.582-1.156,2.582-2.582
						c0-1.426-1.156-2.582-2.582-2.582C327.543,404.547,326.387,405.703,326.387,407.129z"/>
					<path style="fill:#041701;" d="M378.949,407.129c0,1.426,1.156,2.582,2.582,2.582s2.582-1.156,2.582-2.582
						c0-1.426-1.156-2.582-2.582-2.582S378.949,405.703,378.949,407.129z"/>
				</g>
			</g>
		</g>
		<path style="fill:#041701;" d="M458.342,263.586c0,0,48.978-11.946,52.562-14.335c3.584-2.389,2.288-37.236,2.288-37.236
			L458.342,263.586z"/>
		<path style="fill:#041701;" d="M473.738,189.272c0,0,9.216,2.865,26.775,0.96l-7.527-3.099L473.738,189.272z"/>
		<path style="fill:#5E3721;" d="M449.7,250.355c0,0-11.068,4.025-14.087,5.031c-3.019,1.006-6.037,2.012-7.043,7.043
			c-1.006,5.031,1.006,6.037,2.012,7.043c1.006,1.006,6.037,1.006,7.043,0c1.006-1.006-0.503-3.522-0.503-3.522s2.013,1.006,5.031,0
			c3.019-1.006,3.522-4.528,3.522-4.528l7.043-2.012L449.7,250.355z"/>
		<path style="fill:#244F4F;" d="M451.759,247.118c-8.657,5.831-1.928,19.294,7.986,16.03c15.005-4.939,44.812-14.816,47.811-16.315
			c4.025-2.012,8.522-38.514,4.543-47.755c-3.979-9.241-20.642-5.573-20.642,10.526s0,22.136,0,22.136l-39.242,15.093
			C452.215,246.833,452.042,246.928,451.759,247.118z"/>
		<path style="fill:#041701;" d="M438.129,265.448c0,1.945-1.577,3.522-3.522,3.522s-3.522-1.577-3.522-3.522
			c0-1.945,1.577-3.522,3.522-3.522S438.129,263.503,438.129,265.448z"/>
		<path style="fill:#041701;" d="M421.023,229.728c0,3.89-1.577,7.043-3.522,7.043c-1.945,0-3.522-3.153-3.522-7.043
			c0-3.89,1.577-7.043,3.522-7.043C419.447,222.685,421.023,225.838,421.023,229.728z"/>
		<path style="fill:#5E3721;" d="M419.664,230.831c-0.001-0.072-0.002-0.153-0.004-0.221c-0.008-0.365-0.016-0.767-0.026-1.175
			c-0.077-1.456-0.294-2.897-0.625-4.277c-0.033-0.087-0.048-0.191-0.084-0.275l-4.542-0.178c0,0-0.5-2.402-4.603-4.055
			c-4.103-1.653-1.902,2.902-1.902,2.902s-11.108-5.208-13.51-4.708c-4.804,0.999,3.402,4.305,3.402,4.305s-5.952-1.996-7.457,0.298
			c-0.951,1.451,9.407,3.055,9.407,3.055s-1.902,2.902,0.048,6.255c1.951,3.354,8.206,3.305,10.358,1.605
			c2.152-1.701,4.804-0.999,4.804-0.999l4.328,1.112C419.517,233.288,419.648,232.065,419.664,230.831z"/>
		<path style="fill:#FFFFFF;" d="M479.679,166.439c0,0-4.581,0.916-7.33,0.916c-2.749,0-1.832,5.497,2.749,5.497
			c4.581,0,5.497-4.581,5.497-5.497C480.595,166.439,479.679,166.439,479.679,166.439z"/>
		<path style="fill:none;stroke:#041701;stroke-width:0.5;stroke-linecap:round;stroke-linejoin:round;stroke-miterlimit:10;" d="
			M503.14,286.881c0,0,16.127,35.24,20.905,41.213c4.778,5.973,34.643,48.978,34.643,48.978"/>
		<path style="fill:none;stroke:#041701;stroke-width:0.5;stroke-linecap:round;stroke-linejoin:round;stroke-miterlimit:10;" d="
			M479.248,294.048c0,0-1.195,27.475,0,34.643c1.195,7.168,14.761,68.901,14.761,68.901"/>
		<path style="fill:#BABECC;" d="M463.231,324.691c0,0,4.071-4.362,6.461,4c2.389,8.362,2.604,15.71-2.282,16.217l-2.347-9.985
			C465.062,334.923,463.938,327.858,463.231,324.691z"/>
		<path style="fill:#BABECC;" d="M505.129,320.899c0,0,0.997-2.361,4.581,0.028c3.584,2.389,8.362,9.557,8.362,14.335
			c0,4.778-4.549-1.03-4.549-1.03S505.326,320.871,505.129,320.899z"/>
		<path style="fill:#BABECC;" d="M568.245,371.099c0,0,0,9.557-19.113,10.751l-3.584-4.778c0,0,13.141-1.195,20.308-9.557
			L568.245,371.099z"/>
		<path style="fill:#041701;" d="M563.432,365.259c0,0-3.906,8.135-17.465,11.766c0,0,11.626-1.118,19.341-8.897L563.432,365.259z"
			/>
		<path style="fill:#041701;" d="M480.004,392.732c0,0,11.701-0.068,20.106-6.072l0.958,5.154l-16.445,3.177L480.004,392.732z"/>
		<path style="fill:#BABECC;" d="M502.577,393.876c0,0-2.825,8.921-21.021,4.387l-1.933-5.52c0,0,12.62,2.769,21.783-2.919
			L502.577,393.876z"/>
		<polygon style="fill:#041701;" points="488.223,232.984 495.375,234.916 491.791,230.138 491.791,231.332 		"/>
		<polygon style="fill:#041701;" points="478.406,177.859 488.207,175.187 478.193,180.245 		"/>
		<path style="fill:#244F4F;" d="M484.414,180.425c0,0,5.904-1.006,9.491-1.006c3.587,0,2.392,2.012,2.392,5.031
			c0,3.018,1.196,5.031-2.392,5.031c-3.587,0-13.153,1.006-19.132,0c-5.979-1.006-1.428-3.019-1.428-5.031
			c0-2.012,0.329-5.707,2.623-5.031C479.383,180.425,479.631,180.425,484.414,180.425z"/>
		<path style="fill:#041701;" d="M496.41,182.573c0,0-4.619,2.17-10.592,2.17h10.483L496.41,182.573z"/>
	</g>
	<g>
		<path style="fill:#FEA56C;" d="M630.487,206.444c0,0-15.292,11.161-22.098,12.207c-6.806,1.046-40.956-10.508-40.956-10.508
			s-2.109-4.389,3.189-7.252c1.039-0.562,32.35,3.839,32.35,3.839l17.863-11.761C620.835,192.97,623.544,199.93,630.487,206.444z"/>
		<path style="fill:#A32E00;" d="M635.829,182.742c0,0-15.352,9.447-20.037,13.548c0,0,4.685,5.807,4.685,16.796l8.266-4.363
			L635.829,182.742z"/>
		
			<ellipse transform="matrix(0.9713 -0.2379 0.2379 0.9713 -12.5507 161.107)" style="fill:#041701;" cx="661.219" cy="132.553" rx="19.485" ry="19.485"/>
		
			<ellipse transform="matrix(0.973 -0.2306 0.2306 0.973 -15.3609 154.0003)" style="fill:#EA9633;" cx="651.065" cy="142.707" rx="17.693" ry="17.693"/>
		
			<ellipse transform="matrix(0.8467 -0.532 0.532 0.8467 19.3153 365.2167)" style="fill:#041701;" cx="643.505" cy="149.086" rx="24.209" ry="24.209"/>
		<path style="fill:#FEA56C;" d="M646.478,307.919c0,0,12.99,40.151,12.99,66.131c0,25.98-4.724,34.246-7.086,37.789
			c-2.362,3.543-5.905,5.905-7.085,5.905c-1.181,0-3.543,0-1.181,2.362c2.362,2.362,12.99,1.181,14.171-1.181
			c1.181-2.362,5.905-12.99,9.447-14.171c3.543-1.181-1.181-15.352,2.362-31.885c3.543-16.533,7.085-33.066,2.362-47.237
			c-4.724-14.171-3.543-37.789-2.362-48.417c1.181-10.628-4.724-16.533-14.171-14.171c-9.447,2.362-12.99,18.895-12.99,29.523
			C642.935,303.195,646.478,307.919,646.478,307.919z"/>
		<path style="fill:#FEA56C;" d="M650.021,284.301c0,0-17.714,33.066-22.438,40.151c0,0,5.905,23.618,2.362,35.427
			c-3.543,11.809-3.543,31.885-2.362,36.608c1.181,4.724,0,7.086-4.724,10.628c-4.724,3.543-2.362,11.809-8.266,14.171
			c-5.905,2.362-11.809,1.181-10.628-1.181c1.181-2.362,4.724,0,8.266-9.447c3.543-9.447,4.724-27.161,1.181-41.332
			c-3.543-14.171-7.086-47.237-4.724-54.322c2.362-7.085,12.99-41.332,12.99-41.332S642.935,265.406,650.021,284.301z"/>
		<path style="fill:#041701;" d="M613.412,407.116c0,0-2.362,7.086-8.266,9.447c-4.464,1.786-5.553,2.896-5.819,4.353
			c-0.148,0.813,0.517,1.552,1.344,1.552h14.378c0.453,0,0.877-0.227,1.128-0.604l7.526-11.288c0.455-0.683,1.519-0.361,1.519,0.46
			v10.705c0,0.402,0.325,0.727,0.727,0.727h1.011c0.359,0,0.664-0.262,0.718-0.616l2.267-14.736c0,0,3.543-7.085-2.362-10.628
			C627.583,396.487,624.04,405.935,613.412,407.116z"/>
		<path style="fill:#041701;" d="M654.744,407.116c0,0-2.362,7.086-8.266,9.447c-4.464,1.786-5.553,2.896-5.819,4.353
			c-0.148,0.813,0.517,1.552,1.344,1.552h14.378c0.454,0,0.877-0.227,1.129-0.604l7.525-11.288c0.455-0.683,1.519-0.361,1.519,0.46
			v10.705c0,0.402,0.325,0.727,0.727,0.727h1.011c0.359,0,0.664-0.262,0.718-0.616l2.267-14.736c0,0,3.543-7.085-2.362-10.628
			C668.915,396.487,664.191,403.573,654.744,407.116z"/>
		<path style="fill:#C1272D;" d="M627.436,252.201l1.368-3.389c0,0,2.781-20.386-4.747-26.838
			c-7.527-6.452-0.897-21.303,1.143-27.424c2.362-7.085,14.357-19.937,27.261-15.636c0,0,12.904,10.753,13.979,21.507
			c0.949,9.489,0.225,37.388,2.258,48.992C654.911,249.803,641.174,250.984,627.436,252.201z"/>
		<path style="fill:#041701;" d="M670.076,309.1c0,0-7.086,5.905-22.437,4.724l-4.724-11.809l-10.628,16.533
			c0,0-14.171,0-22.437-8.267l10.628-41.332c0,0,16.881-2.979,43.357-4.384c3.998-0.212,7.333,3.035,7.228,7.037L670.076,309.1z"/>
		<path style="fill:#C1272D;" d="M629.925,227.617c0,0-8.266,35.427-15.352,57.865c0,0,42.513-1.683,56.684-16.784l-4.085-44.207
			L629.925,227.617z"/>
		<path style="fill:#041701;" d="M639.464,252.201l19.804-12.935c3.552-2.32,5.832-6.153,6.176-10.382l1.473-18.102l-2.018,0.054
			L639.464,252.201z"/>
		<path style="fill:#FEA56C;" d="M665.63,210.795c0,0-1.181,18.895-4.724,24.799c-3.543,5.905-34.247,24.799-34.247,24.799
			s-4.724-1.181-3.543-7.085c0.232-1.158,23.618-22.438,23.618-22.438l2.362-21.256C649.097,209.614,656.182,211.976,665.63,210.795
			z"/>
		<polygon style="fill:#041701;" points="657.086,379.955 663.801,379.955 665.289,383.497 666.608,379.955 670.076,379.955 
			670.076,398.849 653.518,410.005 657.086,396.487 		"/>
		<polygon style="fill:#041701;" points="614.573,379.955 622.469,379.955 623.957,383.497 625.276,379.955 628.744,379.955 
			628.744,398.849 611.03,413.02 614.573,396.487 		"/>
		<g>
			<polygon style="fill:#E0D2BD;" points="637.246,272.491 646.221,336.812 592.372,339.804 593.867,272.491 			"/>
			<polygon style="fill:#D6C3A9;" points="598.482,272.491 604.222,339.145 598.113,336.408 592.372,339.804 593.867,272.491 			"/>
		</g>
		<g>
			<polygon style="fill:#BB3C00;" points="570.972,226.958 551.092,288.784 501.296,268.068 531.906,208.1 			"/>
			<polygon style="fill:#A32E00;" points="536.062,210.106 512.255,272.627 507.943,267.506 501.296,268.068 531.906,208.1 			"/>
		</g>
		<g>
			<polygon style="fill:#FBB03B;" points="680.377,241.909 714,297.472 665.698,321.466 640.517,259.023 			"/>
			<polygon style="fill:#F7931E;" points="644.757,257.203 676.328,316.185 669.634,316.081 665.698,321.466 640.517,259.023 			"/>
		</g>
		<path style="fill:#FEA56C;" d="M651.596,182.482l1.89-20.432c0,0,2.791,2.691,3.749-2.6c0.958-5.29-0.775-7.79-2.891-8.173
			c-2.116-0.383-3.558,1.541-3.941,3.658c-0.383,2.116-0.17,2.7-1.228,2.508c-1.058-0.192-0.244-7.143-3.901-11.083
			c-3.658-3.941-7.933-4.838-12.065-0.122c-4.132,4.716-5.343-2.053-6.976,0.93c-1.633,2.983-4.024,18.496,2.576,26.2
			c3.481,4.064,8.713,2.383,8.713,2.383l-1.724,9.523C635.797,185.273,644.581,191.048,651.596,182.482z"/>
		<path style="fill:#FFFFFF;" d="M639.157,164.524c0,0-5.377,1.075-8.603,1.075s-2.151,6.452,3.226,6.452
			c5.377,0,6.452-5.377,6.452-6.452C640.232,164.524,639.157,164.524,639.157,164.524z"/>
		<path style="fill:none;stroke:#041701;stroke-width:0.5;stroke-miterlimit:10;" d="M625.104,279.679
			c0,0,4.541-20.285-2.091-25.147"/>
		<path style="fill:#FEA56C;" d="M570.312,200.304c0,0-8.241-3.832-9.317-3.176c-1.076,0.656-1.076,0.656,0.236,2.808
			c1.312,2.152,3.701,3.648,5.433,4.068c1.732,0.42,2.808-0.236,2.808-0.236S578.973,202.403,570.312,200.304z"/>
		<path style="fill:#FEA56C;" d="M569.303,208.616c0,0-12.634,1.979-13.946-0.173c-1.312-2.152-3.937-6.456,1.443-9.737
			c3.403-2.075,6.509,3.412,6.509,3.412l4.12,1.916l2.203,4.669"/>
		<path style="fill:#FEA56C;" d="M624.795,250.985c0,0-9.959,0.333-10.687,1.508c-0.728,1.175-0.728,1.175,1.622,2.63
			c2.349,1.455,5.427,1.736,7.329,1.289c1.902-0.447,2.63-1.622,2.63-1.622S634.307,248.749,624.795,250.985z"/>
		<path style="fill:#FEA56C;" d="M627.925,259.616c0,0-11.379,8.193-13.729,6.738c-2.35-1.455-7.049-4.366-3.41-10.24
			c2.301-3.715,8.057,0.114,8.057,0.114l6.358-2.631l3.543,4.724"/>
		<circle style="fill:#FFFFFF;" cx="655.314" cy="162.076" r="1.771"/>
		<path style="fill:none;stroke:#041701;stroke-width:0.5;stroke-miterlimit:10;" d="M658.857,257.73
			c0,0-17.531-16.941-14.171-25.98"/>
		<path style="fill:none;stroke:#041701;stroke-width:0.5;stroke-miterlimit:10;" d="M611.54,279.679c0,0-3.008-20.63,3.623-25.492"
			/>
		<path style="fill:none;stroke:#041701;stroke-width:0.5;stroke-miterlimit:10;" d="M557.457,225.617
			c0,0,11.592-17.255,7.176-24.192"/>
		<path style="fill:none;stroke:#041701;stroke-width:0.5;stroke-miterlimit:10;" d="M544.817,220.695
			c0,0,4.682-20.316,12.626-22.44"/>
		<path style="fill:none;stroke:#041701;stroke-width:0.5;stroke-miterlimit:10;" d="M662.072,232.982c0,0,6.232,8.215,9.775,17.663
			"/>
		<g>
			<g>
				
					<text transform="matrix(0.9292 0.3696 -0.3696 0.9292 528.8022 245.5248)" style="fill:#EA9633; font-family:'Montserrat-Black'; font-size:14.851px;">25%</text>
				
					<text transform="matrix(0.9292 0.3696 -0.3696 0.9292 523.7706 258.1741)" style="fill:#EA9633; font-family:'Montserrat-Black'; font-size:14.851px;">OFF</text>
			</g>
		</g>
		<g>
			<g>
				
					<text transform="matrix(0.8673 -0.4979 0.4979 0.8673 661.3344 282.74)" style="fill:#BB3C00; font-family:'Montserrat-Black'; font-size:22.8281px;">SA</text>
				
					<text transform="matrix(0.8673 -0.4979 0.4979 0.8673 671.3916 302.7348)" style="fill:#BB3C00; font-family:'Montserrat-Black'; font-size:27.3603px;">LE</text>
			</g>
		</g>
		<path style="fill:#BB3C00;" d="M633.181,305.577c0.882-1.442,1.208-3.252,0.68-5.12c-0.657-2.328-2.68-4.115-5.071-4.482
			c-4.155-0.639-7.606,2.667-7.395,6.624c0.003,0.052,0.012,0.103,0.016,0.155l-0.016,0.004c-0.002-0.053,0.002-0.105-0.001-0.159
			c-0.211-3.958-3.994-6.877-8.057-5.801c-2.402,0.637-4.248,2.723-4.596,5.183c-0.408,2.876,1.074,5.398,3.343,6.589
			c1.7,0.892,3.234,2.069,4.739,3.26l5.286,4.186l6.686-6.304l3.075-2.609c0.513-0.435,0.954-0.948,1.307-1.523l0.004-0.004
			L633.181,305.577z"/>
		<path style="fill:none;stroke:#041701;stroke-width:0.25;stroke-miterlimit:10;" d="M649.442,184.644
			c0,0,5.555,6.392,6.793,11.342c1.237,4.95,0.851,15.022,0.851,15.022"/>
		<path style="fill:#041701;" d="M622.82,220.737c0,0,6.188,4.95,14.851,4.95l-9.255,8.253
			C628.417,233.941,630.246,228.163,622.82,220.737z"/>
		<polygon style="fill:#041701;" points="636.434,176.184 646.387,173.183 636.255,182.742 		"/>
		<polygon style="fill:#041701;" points="648.81,199.699 646.334,215.787 646.86,229.743 648.81,209.599 		"/>
		<path style="fill:none;stroke:#041701;stroke-width:0.25;stroke-miterlimit:10;" d="M560.888,201.22c0,0-2.678-1.497-4.809,0.268
			c-2.131,1.766-2.63,2.898-2.63,2.898"/>
		<path style="fill:none;stroke:#041701;stroke-width:0.25;stroke-miterlimit:10;" d="M561.521,202.852c0,0-2.678-1.497-4.809,0.269
			c-2.131,1.766-2.63,2.898-2.63,2.898"/>
		<path style="fill:none;stroke:#041701;stroke-width:0.25;stroke-miterlimit:10;" d="M561.376,204.813c0,0-1.837-1.027-3.298,0.184
			c-1.461,1.211-1.804,1.988-1.804,1.988"/>
	</g>
	<ellipse style="fill:#FFF0E3;" cx="140.6" cy="420.434" rx="60.474" ry="5.498"/>
	<ellipse style="fill:#FFF0E3;" cx="267.545" cy="420.434" rx="60.474" ry="5.498"/>
	<ellipse style="fill:#FFF0E3;" cx="514.438" cy="420.434" rx="69.47" ry="5.498"/>
	<ellipse style="fill:#FFF0E3;" cx="643.881" cy="420.434" rx="54.976" ry="4.351"/>
</g>
</svg>
